[img]http://img189.imageshack.us/img189/9586/mi4chod.jpg[/img]
Thank you smallz for banner!
[code]
Mission Impossible Ghost Protocol 2011 TS READNFO XviD-26K

Imdb: 
http://www.imdb.com/title/tt1229238/

Plot:
The IMF is shut down when it's implicated in the bombing of the Kremlin, causing Ethan Hunt and his new team to go rogue to clear their organization's name.

Sources:
Generator

Notes:
Cropped and encoded the video, so take or leave it the source is not bad just a shame about the hardcoded arabic subs!


Greetz:
Xtreme Encode|FYA|ILLUMANTI|CM8|RX|VISION|HDSCENE|
To all the people who have helped me :P you know who you are

Anything to offer email us @: 26k@hushmail.me

Format                                   : AVI
Format/Info                              : Audio Video Interleave
File size                                : 1.10 GiB
Duration                                 : 2h 4mn
Overall bit rate                         : 1 268 Kbps

Video
ID                                       : 0
Format                                   : MPEG-4 Visual
Format profile                           : Advanced Simple@L5
Format settings, BVOP                    : 2
Format settings, QPel                    : No
Format settings, GMC                     : No warppoints
Format settings, Matrix                  : Default (H.263)
Codec ID                                 : XVID
Codec ID/Hint                            : XviD
Duration                                 : 2h 4mn
Bit rate                                 : 1 000 Kbps
Width                                    : 656 pixels
Height                                   : 238 pixels
Display aspect ratio                     : 2.756
Frame rate                               : 23.000 fps
Color space                              : YUV
Chroma subsampling                       : 4:2:0
Bit depth                                : 8 bits
Scan type                                : Progressive
Compression mode                         : Lossy
Bits/(Pixel*Frame)                       : 0.278
Stream size                              : 889 MiB (79%)
Writing library                          : XviD 63

Audio
ID                                       : 1
Format                                   : MPEG Audio
Format version                           : Version 1
Format profile                           : Layer 3
Codec ID                                 : 55
Codec ID/Hint                            : MP3
Duration                                 : 2h 4mn
Bit rate mode                            : Constant
Bit rate                                 : 256 Kbps
Channel(s)                               : 2 channels
Sampling rate                            : 44.1 KHz
Compression mode                         : Lossy
Stream size                              : 228 MiB (20%)
Alignment                                : Split accross interleaves
Interleave, duration                     : 26 ms (0.60 video frame)
Writing library                          : LAME3.98

[/code]
Screens:

[img]http://img197.imageshack.us/img197/9459/vlcsnap2011121700h34m18.png[/img]
[img]http://img338.imageshack.us/img338/1838/vlcsnap2011121700h34m42.png[/img]
[img]http://img834.imageshack.us/img834/8020/vlcsnap2011121700h34m46.png[/img]
[img]http://img708.imageshack.us/img708/1785/vlcsnap2011121700h34m52.png[/img]
[img]http://img641.imageshack.us/img641/8215/vlcsnap2011121700h35m06.png[/img]

[img]http://img851.imageshack.us/img851/5503/26ks.jpg[/img]
Thank you smallz for banner!